<svg width="52" height="61" xmlns="http://www.w3.org/2000/svg"><g fill="none" fill-rule="evenodd"><path d="M6.751 35.195c.266-.25.595-.394.934-.43a5.274 5.274 0 0 1-1.14-.792c-1.049-.991-1.571-2.3-1.571-3.909 0-1.854.812-3.404 2.184-4.436-.686-2.947-1.093-6.066-1.214-9.39 4.287-.743 13.087-2.835 19.8-8.188.07.057.143.11.214.166.143.112.286.224.43.333.103.078.208.153.313.23.115.084.23.17.347.253l.33.228c.113.079.226.159.34.236.111.074.222.146.333.218.116.076.232.153.349.228l.327.204.363.224.32.19c.125.074.251.149.378.221.103.06.207.117.31.175.131.073.262.147.393.218.1.055.199.107.299.16.137.074.275.147.413.219l.278.142a37.843 37.843 0 0 0 1.879.895l.21.092a43.334 43.334 0 0 0 1.97.812l.103.04c.209.08.417.158.625.234l.058.021a47.489 47.489 0 0 0 .676.241 54.777 54.777 0 0 0 8.542 2.207c-.16 4.399-.812 8.443-1.966 12.195 2.263.9 3.713 3.052 3.763 5.842 2.563-6.098 3.82-12.884 3.799-20.446l-.008-2.515-2.504-.242c-.084-.009-5.669-.594-11.652-2.988a39.728 39.728 0 0 1-.578-.237l-.014-.005c-.2-.084-.401-.17-.602-.259l-.03-.013c-.182-.08-.363-.162-.545-.245l-.084-.039a34.57 34.57 0 0 1-1.755-.872l-.062-.033c-.184-.099-.367-.2-.55-.302l-.118-.068a31.145 31.145 0 0 1-.436-.253c-.045-.026-.09-.052-.133-.079a26.868 26.868 0 0 1-.526-.321l-.085-.055a27.863 27.863 0 0 1-1.027-.683l-.082-.056a24.464 24.464 0 0 1-.487-.354l-.153-.115a23.412 23.412 0 0 1-.364-.28l-.14-.11c-.156-.125-.31-.25-.462-.38-.041-.033-.08-.068-.121-.103-.12-.101-.238-.205-.354-.309l-.147-.132c-.142-.129-.283-.26-.421-.393l-.026-.024L25.744.5l-1.93 1.863C16.244 9.67 2.99 11.058 2.86 11.07l-2.504.242-.007 2.515C.325 22.383 1.934 29.945 5.224 36.64l1.527-1.445Z" fill="#4670A9"/><path d="M11.052 40.058c-2.215 0-3.896-.45-5.331-1.84l1.845-1.76c.923.88 2.174 1.175 3.527 1.175 1.681 0 2.583-.607 2.583-1.722 0-.489-.143-.9-.45-1.174-.288-.254-.616-.391-1.292-.489l-1.764-.235c-1.25-.176-2.173-.547-2.83-1.154-.696-.665-1.045-1.564-1.045-2.738 0-2.485 1.928-4.226 5.085-4.226 2.01 0 3.465.47 4.716 1.624l-1.805 1.702c-.922-.841-2.03-.959-2.993-.959-1.517 0-2.256.802-2.256 1.76 0 .353.124.725.431.999.287.254.759.469 1.354.547l1.722.235c1.333.176 2.173.528 2.788 1.076.78.704 1.128 1.721 1.128 2.954 0 2.7-2.358 4.225-5.413 4.225M24.558 35.72h-2.101c-.958 0-1.49.424-1.49 1.138 0 .694.49 1.157 1.53 1.157.735 0 1.204-.058 1.673-.482.286-.251.388-.656.388-1.273v-.54Zm.061 4.242v-.868c-.714.675-1.387.964-2.61.964-1.204 0-2.081-.29-2.713-.887-.572-.559-.877-1.369-.877-2.255 0-1.6 1.162-2.911 3.63-2.911h2.509v-.502c0-1.098-.571-1.58-1.979-1.58-1.02 0-1.488.231-2.04.829l-1.692-1.562c1.04-1.08 2.06-1.388 3.834-1.388 2.978 0 4.528 1.196 4.528 3.547v6.613h-2.59ZM33.014 32.052v8.006h-2.721v-8.006h-1.13v-1.947h1.13v-1.28c0-1.455.963-2.93 3.182-2.93h1.548v2.164h-1.067c-.649 0-.942.334-.942.924v1.122h2.01v1.947h-2.01ZM42.418 32.92c-.286-.597-.88-1.04-1.778-1.04-.9 0-1.492.443-1.778 1.04-.164.365-.225.634-.246 1.077h4.047c-.02-.443-.082-.712-.245-1.077Zm-3.802 2.79c0 1.288.838 2.232 2.33 2.232 1.165 0 1.737-.308 2.412-.944l1.615 1.482c-1.084 1.02-2.126 1.578-4.048 1.578-2.513 0-4.925-1.078-4.925-5.138 0-3.27 1.88-5.118 4.64-5.118 2.963 0 4.64 2.04 4.64 4.792v1.115h-6.664Z" fill="#00913A"/><path d="M22.477 21.504v-.568c0-.454-.14-.842-.42-1.163-.282-.32-.648-.481-1.097-.481-.514 0-.918.193-1.211.576-.293.384-.44.925-.44 1.623 0 .599.14 1.073.418 1.421.279.349.66.523 1.144.523.48 0 .867-.177 1.163-.53.297-.353.443-.82.443-1.4Zm2.29 2.634c0 1.334-.403 2.368-1.21 3.1-.807.733-1.976 1.1-3.508 1.1-1.012 0-1.813-.14-2.405-.415v-1.868c.773.43 1.552.645 2.34.645.783 0 1.388-.197 1.82-.592.429-.396.645-.933.645-1.613v-.568h-.03c-.527.806-1.308 1.208-2.34 1.208-.959 0-1.719-.323-2.282-.97-.561-.646-.844-1.511-.844-2.597 0-1.218.314-2.184.94-2.9.627-.717 1.45-1.075 2.473-1.075.913 0 1.598.336 2.054 1.011h.029v-.836h2.318v6.37ZM29.918 19.243c-.56 0-.995.175-1.304.525-.31.35-.465.846-.465 1.488 0 1.341.594 2.012 1.784 2.012 1.133 0 1.7-.689 1.7-2.067 0-1.306-.571-1.958-1.715-1.958m-.06 5.676c-1.279 0-2.284-.327-3.016-.98-.732-.652-1.098-1.537-1.098-2.656 0-1.155.38-2.059 1.14-2.711.758-.653 1.785-.979 3.078-.979 1.275 0 2.273.326 2.998.979.725.652 1.087 1.515 1.087 2.588 0 1.16-.374 2.075-1.122 2.749-.746.672-1.768 1.01-3.067 1.01" fill="#DC612D"/><path d="M13.535 49.121c1.401-1.41 4.059-3.018 6.97-.126l4.132 4.041c-1.11 2.168-3.676 3.397-5.75 1.337l5.75 5.708 3.549-3.522-3.549 3.522-11.102-10.96Z" fill="#AF422C"/><path d="M41.372 43.745c-1.412-1.406-4.092-3.01-7.027-.126l-9.586 9.378c-1.522 1.496-3.504 2.722-5.852 1.389l5.798 5.695 16.667-16.336Z" fill="#DC612D"/></g></svg>